<?xml version="1.0" encoding="UTF-8" standalone="no"?>
<svg
   xmlns:dc="http://purl.org/dc/elements/1.1/"
   xmlns:cc="http://creativecommons.org/ns#"
   xmlns:rdf="http://www.w3.org/1999/02/22-rdf-syntax-ns#"
   xmlns:svg="http://www.w3.org/2000/svg"
   xmlns="http://www.w3.org/2000/svg"
   xmlns:sodipodi="http://sodipodi.sourceforge.net/DTD/sodipodi-0.dtd"
   xmlns:inkscape="http://www.inkscape.org/namespaces/inkscape"
   version="1.1"
   id="Layer_1"
   x="0px"
   y="0px"
   viewBox="0 0 150 150"
   style="enable-background:new 0 0 150 150;"
   xml:space="preserve"
   sodipodi:docname="menu.svg"
   inkscape:version="1.0.2 (e86c870879, 2021-01-15)"><metadata
   id="metadata126"><rdf:RDF><cc:Work
       rdf:about=""><dc:format>image/svg+xml</dc:format><dc:type
         rdf:resource="http://purl.org/dc/dcmitype/StillImage" /><dc:title></dc:title></cc:Work></rdf:RDF></metadata><defs
   id="defs124" /><sodipodi:namedview
   pagecolor="#ffffff"
   bordercolor="#666666"
   borderopacity="1"
   objecttolerance="10"
   gridtolerance="10"
   guidetolerance="10"
   inkscape:pageopacity="0"
   inkscape:pageshadow="2"
   inkscape:window-width="629"
   inkscape:window-height="1045"
   id="namedview122"
   showgrid="false"
   inkscape:zoom="2.7533333"
   inkscape:cx="75"
   inkscape:cy="75"
   inkscape:window-x="1847"
   inkscape:window-y="24"
   inkscape:window-maximized="0"
   inkscape:current-layer="Layer_1" />
<g
   id="XMLID_240_">
	<path
   id="XMLID_241_"
   d="M15,30h120c8.284,0,15-6.716,15-15s-6.716-15-15-15H15C6.716,0,0,6.716,0,15S6.716,30,15,30z" />
	<path
   id="XMLID_242_"
   d="M135,60H15C6.716,60,0,66.716,0,75s6.716,15,15,15h120c8.284,0,15-6.716,15-15S143.284,60,135,60z" />
	<path
   id="XMLID_243_"
   d="M135,120H15c-8.284,0-15,6.716-15,15s6.716,15,15,15h120c8.284,0,15-6.716,15-15S143.284,120,135,120z" />
</g>
<g
   id="g91">
</g>
<g
   id="g93">
</g>
<g
   id="g95">
</g>
<g
   id="g97">
</g>
<g
   id="g99">
</g>
<g
   id="g101">
</g>
<g
   id="g103">
</g>
<g
   id="g105">
</g>
<g
   id="g107">
</g>
<g
   id="g109">
</g>
<g
   id="g111">
</g>
<g
   id="g113">
</g>
<g
   id="g115">
</g>
<g
   id="g117">
</g>
<g
   id="g119">
</g>
<path
   style="fill:#ffffff;stroke-width:0.363196"
   d="M 12.564515,29.579785 C 8.1629826,28.842483 3.5120281,25.217859 1.5239298,20.975537 0.64524861,19.100554 0.54524423,18.476315 0.54918087,14.891041 0.5531826,11.246439 0.64309253,10.715722 1.5738535,8.842642 3.5869366,4.7914776 6.6000134,2.2051694 10.827935,0.89929743 13.103645,0.19640223 14.42734,0.18159806 75,0.18159806 c 60.57266,0 61.89636,0.0148042 64.17207,0.71769937 4.22282,1.30429697 7.31704,3.96272407 9.29452,7.98547057 0.89457,1.819797 0.98862,2.391905 0.98862,6.01391 0,3.767819 -0.0681,4.141157 -1.16034,6.359779 -2.18724,4.442909 -6.37276,7.555527 -11.22935,8.350863 -2.6336,0.431288 -121.918923,0.40299 -124.501005,-0.02953 z"
   id="path128" /><path
   style="fill:#ffffff;stroke-width:0.363196"
   d="M 12.001926,89.494299 C 7.736955,88.658257 3.6689332,85.409071 1.7103936,81.274309 0.62863623,78.990562 0.54479419,78.539249 0.54479419,75 c 0,-3.539249 0.083842,-3.990562 1.16559941,-6.274309 2.0244372,-4.273882 6.0249575,-7.387779 10.5970484,-8.248457 2.691836,-0.506727 122.693278,-0.506727 125.385118,0 4.57209,0.860678 8.57261,3.974575 10.59705,8.248457 1.08175,2.283747 1.1656,2.73506 1.1656,6.274309 0,3.513993 -0.0887,4.000767 -1.12932,6.196761 -2.0362,4.297028 -6.08923,7.470596 -10.63333,8.326005 -2.44618,0.460483 -123.335987,0.433103 -125.690634,-0.02847 z"
   id="path130" /><path
   style="fill:#ffffff;stroke-width:0.363196"
   d="m 10.480464,148.97716 c -4.184271,-1.42623 -6.9254923,-3.83296 -8.9066105,-7.8198 -0.93111948,-1.8738 -1.02066934,-2.40306 -1.02467263,-6.05604 -0.004134,-3.77222 0.0624535,-4.13856 1.15595293,-6.35978 2.1579702,-4.38346 6.4242553,-7.56538 11.1883282,-8.34459 2.926521,-0.47866 121.250998,-0.48463 124.172058,-0.006 4.85659,0.79534 9.04211,3.90795 11.22935,8.35086 1.0935,2.22122 1.16008,2.58756 1.15595,6.35978 -0.004,3.65298 -0.0935,4.18224 -1.02467,6.05604 -2.01309,4.05116 -5.02616,6.63747 -9.25408,7.94334 -2.27632,0.70308 -3.58603,0.71751 -64.301128,0.70833 l -61.97748,-0.009 z"
   id="path132" /><path
   style="fill:#ffffff;stroke-width:0.363196"
   d="m 32.142857,149.47528 -20.702179,-0.20167 -2.448215,-1.15974 c -3.0528411,-1.44614 -5.5777354,-3.92715 -7.1028454,-6.97939 -1.08078498,-2.16299 -1.16322535,-2.59069 -1.16322535,-6.03473 0,-3.51843 0.0653471,-3.83738 1.28624525,-6.27781 1.552991,-3.10424 4.0696947,-5.5144 7.4304618,-7.11587 l 2.3607747,-1.12496 31.598063,-0.18159 c 17.378935,-0.0999 45.826046,-0.0999 63.215803,0 l 31.61774,0.18159 2.76662,1.36776 c 3.25934,1.61134 5.67349,4.06346 7.23513,7.34895 0.92643,1.94907 1.03584,2.56615 1.03609,5.84393 2.7e-4,3.39708 -0.0847,3.83478 -1.16294,5.99273 -2.04305,4.0888 -5.88006,7.13466 -9.99724,7.93591 -2.08518,0.4058 -76.636417,0.69064 -105.970283,0.40489 z"
   id="path134" /><path
   style="fill:none;stroke-width:0.363196"
   d=""
   id="path136" /></svg>
